@startuml
title Principio de Inversión de Dependencias (DIP)

interface INotificacion {
    +enviarNotificacion()
    +programarNotificacion()
    +componerMensaje()
}

class Proyecto {
    -nombre
    -descripcion
    -estado
    -fechaInicio
    -fechaFin
    +crearProyecto()
    +finalizarProyecto()
    +obtenerDatosProyecto()
}

class Notificacion {
    -mensaje
    -fecha
    -destinatario
    +enviarNotificacion()
    +programarNotificacion()
    +registrarEnvio()
    +validarReglasNegocio()
    +componerMensaje()
}

Proyecto --> INotificacion : depende de
Notificacion ..|> INotificacion

Proyecto --> Notificacion : genera
Notificacion --> Proyecto : usa datos

@enduml







